<svg xmlns="http://www.w3.org/2000/svg" xmlns:xlink="http://www.w3.org/1999/xlink" width="500" zoomAndPan="magnify" viewBox="0 0 375 374.999991" height="500" preserveAspectRatio="xMidYMid meet" version="1.0"><defs><clipPath id="e25e132828"><path d="M 8.925781 8.925781 L 365.925781 8.925781 L 365.925781 365.925781 L 8.925781 365.925781 Z M 8.925781 8.925781 " clip-rule="nonzero"/></clipPath></defs><g clip-path="url(#e25e132828)"><path fill="#3461ab" d="M 20.832031 181.542969 L 122.019531 181.542969 L 122.019531 199.402344 L 20.832031 199.402344 Z M 32.734375 157.734375 L 98.210938 157.734375 L 98.210938 169.640625 L 32.734375 169.640625 Z M 20.832031 145.832031 L 20.832031 133.925781 L 86.308594 133.925781 L 86.308594 145.832031 Z M 32.734375 110.117188 L 98.210938 110.117188 L 98.210938 122.019531 L 32.734375 122.019531 Z M 133.925781 116.070312 C 133.925781 109.511719 139.273438 104.164062 145.832031 104.164062 L 229.164062 104.164062 C 235.71875 104.164062 241.066406 109.511719 241.066406 116.070312 L 241.066406 229.164062 C 241.066406 235.71875 235.71875 241.066406 229.164062 241.066406 L 145.832031 241.066406 C 139.273438 241.066406 133.925781 235.71875 133.925781 229.164062 Z M 187.496094 26.785156 C 187.496094 23.503906 190.171875 20.832031 193.449219 20.832031 L 324.402344 20.832031 C 327.679688 20.832031 330.351562 23.503906 330.351562 26.785156 L 330.351562 98.210938 L 244.742188 98.210938 C 240.554688 94.5625 235.160156 92.257812 229.164062 92.257812 L 187.496094 92.257812 Z M 324.402344 122.019531 L 252.972656 122.019531 L 252.972656 116.070312 C 252.972656 114 252.625 112.023438 252.136719 110.117188 L 330.351562 110.117188 L 330.351562 116.070312 C 330.351562 119.347656 327.679688 122.019531 324.402344 122.019531 Z M 270.828125 145.832031 L 252.972656 145.832031 L 252.972656 133.925781 L 270.828125 133.925781 Z M 288.6875 163.6875 L 288.6875 169.640625 L 252.972656 169.640625 L 252.972656 157.734375 L 282.734375 157.734375 C 286.011719 157.734375 288.6875 160.410156 288.6875 163.6875 Z M 354.164062 199.402344 L 252.972656 199.402344 L 252.972656 181.542969 L 354.164062 181.542969 Z M 342.257812 354.164062 L 294.640625 354.164062 C 291.359375 354.164062 288.6875 351.488281 288.6875 348.210938 L 288.6875 288.6875 L 348.210938 288.6875 L 348.210938 348.210938 C 348.210938 351.488281 345.535156 354.164062 342.257812 354.164062 Z M 348.210938 211.304688 L 348.210938 276.78125 L 288.6875 276.78125 L 288.6875 211.304688 Z M 252.972656 247.019531 L 252.972656 258.925781 C 252.972656 262.203125 250.296875 264.878906 247.019531 264.878906 L 127.972656 264.878906 C 124.695312 264.878906 122.019531 262.203125 122.019531 258.925781 L 122.019531 247.019531 C 122.019531 244.578125 123.507812 242.484375 125.601562 241.578125 C 129.785156 248.367188 137.25 252.972656 145.832031 252.972656 L 229.164062 252.972656 C 237.742188 252.972656 245.207031 248.367188 249.390625 241.578125 C 251.484375 242.484375 252.972656 244.578125 252.972656 247.019531 Z M 193.449219 306.542969 L 181.542969 306.542969 L 181.542969 276.78125 L 193.449219 276.78125 Z M 252.996094 336.328125 L 187.984375 330.910156 C 187.660156 330.863281 187.332031 330.863281 187.007812 330.910156 L 122.019531 336.304688 L 122.089844 326.65625 L 172.035156 313.613281 C 174.195312 316.542969 177.636719 318.449219 181.542969 318.449219 L 193.449219 318.449219 C 197.355469 318.449219 200.796875 316.542969 202.957031 313.613281 L 252.972656 326.65625 Z M 232.140625 354.164062 C 227.417969 354.164062 223.558594 350.441406 223.28125 345.792969 L 240.8125 347.257812 C 239.882812 351.210938 236.371094 354.164062 232.140625 354.164062 Z M 142.855469 354.164062 C 138.621094 354.164062 135.113281 351.210938 134.179688 347.257812 L 151.710938 345.792969 C 151.433594 350.441406 147.574219 354.164062 142.855469 354.164062 Z M 86.308594 276.78125 L 26.785156 276.78125 L 26.785156 211.304688 L 86.308594 211.304688 Z M 80.355469 354.164062 L 32.734375 354.164062 C 29.457031 354.164062 26.785156 351.488281 26.785156 348.210938 L 26.785156 288.6875 L 86.308594 288.6875 L 86.308594 348.210938 C 86.308594 351.488281 83.632812 354.164062 80.355469 354.164062 Z M 14.878906 209.65625 L 14.878906 348.210938 C 14.878906 358.070312 22.878906 366.066406 32.734375 366.066406 L 80.355469 366.066406 C 90.214844 366.066406 98.210938 358.070312 98.210938 348.210938 L 98.210938 211.304688 L 122.019531 211.304688 L 122.019531 229.164062 C 122.019531 229.535156 122.113281 229.859375 122.136719 230.234375 C 115.160156 232.675781 110.117188 239.230469 110.117188 247.019531 L 110.117188 258.925781 C 110.117188 268.785156 118.113281 276.78125 127.972656 276.78125 L 169.640625 276.78125 L 169.640625 301.941406 L 119.183594 315.101562 C 113.859375 316.402344 110.117188 321.167969 110.117188 326.65625 L 110.117188 336.304688 C 110.117188 339.628906 111.535156 342.839844 114 345.09375 C 116.183594 347.117188 119.066406 348.234375 121.996094 348.234375 C 122.113281 348.234375 122.207031 348.210938 122.324219 348.210938 C 123.789062 358.277344 132.390625 366.066406 142.855469 366.066406 C 154.339844 366.066406 163.6875 356.71875 163.6875 345.234375 C 163.6875 345.09375 163.640625 344.953125 163.640625 344.792969 L 187.496094 342.816406 L 211.351562 344.792969 C 211.351562 344.953125 211.304688 345.09375 211.304688 345.234375 C 211.304688 356.71875 220.652344 366.066406 232.140625 366.066406 C 242.625 366.066406 251.230469 358.253906 252.671875 348.164062 C 255.785156 348.28125 258.714844 347.1875 260.992188 345.09375 C 263.457031 342.839844 264.878906 339.628906 264.878906 336.304688 L 264.878906 326.65625 C 264.878906 321.167969 261.132812 316.402344 255.902344 315.125 L 205.355469 301.941406 L 205.355469 276.78125 L 247.019531 276.78125 C 256.878906 276.78125 264.878906 268.785156 264.878906 258.925781 L 264.878906 247.019531 C 264.878906 239.230469 259.832031 232.675781 252.855469 230.234375 C 252.878906 229.859375 252.972656 229.535156 252.972656 229.164062 L 252.972656 211.304688 L 276.78125 211.304688 L 276.78125 348.210938 C 276.78125 358.070312 284.78125 366.066406 294.640625 366.066406 L 342.257812 366.066406 C 352.117188 366.066406 360.113281 358.070312 360.113281 348.210938 L 360.113281 209.65625 C 363.648438 207.585938 366.066406 203.773438 366.066406 199.402344 L 366.066406 181.542969 C 366.066406 174.988281 360.71875 169.640625 354.164062 169.640625 L 300.589844 169.640625 L 300.589844 163.6875 C 300.589844 153.828125 292.59375 145.832031 282.734375 145.832031 L 282.734375 133.925781 L 324.402344 133.925781 C 334.257812 133.925781 342.257812 125.925781 342.257812 116.070312 L 342.257812 26.785156 C 342.257812 16.925781 334.257812 8.925781 324.402344 8.925781 L 193.449219 8.925781 C 183.589844 8.925781 175.59375 16.925781 175.59375 26.785156 L 175.59375 92.257812 L 145.832031 92.257812 C 132.691406 92.257812 122.019531 102.929688 122.019531 116.070312 L 122.019531 169.640625 L 110.117188 169.640625 L 110.117188 157.734375 C 110.117188 151.179688 104.769531 145.832031 98.210938 145.832031 L 98.210938 133.925781 C 104.769531 133.925781 110.117188 128.578125 110.117188 122.019531 L 110.117188 110.117188 C 110.117188 103.558594 104.769531 98.210938 98.210938 98.210938 L 32.734375 98.210938 C 26.179688 98.210938 20.832031 103.558594 20.832031 110.117188 L 20.832031 122.019531 C 14.273438 122.019531 8.925781 127.367188 8.925781 133.925781 L 8.925781 145.832031 C 8.925781 152.386719 14.273438 157.734375 20.832031 157.734375 L 20.832031 169.640625 C 14.273438 169.640625 8.925781 174.988281 8.925781 181.542969 L 8.925781 199.402344 C 8.925781 203.773438 11.34375 207.585938 14.878906 209.65625 " fill-opacity="1" fill-rule="nonzero"/></g><path fill="#3461ab" d="M 62.496094 300.589844 L 50.59375 300.589844 C 47.3125 300.589844 44.640625 303.265625 44.640625 306.542969 C 44.640625 309.820312 47.3125 312.496094 50.59375 312.496094 L 62.496094 312.496094 C 65.777344 312.496094 68.449219 309.820312 68.449219 306.542969 C 68.449219 303.265625 65.777344 300.589844 62.496094 300.589844 " fill-opacity="1" fill-rule="nonzero"/><path fill="#3461ab" d="M 50.59375 235.117188 L 62.496094 235.117188 C 65.777344 235.117188 68.449219 232.441406 68.449219 229.164062 C 68.449219 225.882812 65.777344 223.210938 62.496094 223.210938 L 50.59375 223.210938 C 47.3125 223.210938 44.640625 225.882812 44.640625 229.164062 C 44.640625 232.441406 47.3125 235.117188 50.59375 235.117188 " fill-opacity="1" fill-rule="nonzero"/><path fill="#3461ab" d="M 324.402344 300.589844 L 312.496094 300.589844 C 309.21875 300.589844 306.542969 303.265625 306.542969 306.542969 C 306.542969 309.820312 309.21875 312.496094 312.496094 312.496094 L 324.402344 312.496094 C 327.679688 312.496094 330.351562 309.820312 330.351562 306.542969 C 330.351562 303.265625 327.679688 300.589844 324.402344 300.589844 " fill-opacity="1" fill-rule="nonzero"/><path fill="#3461ab" d="M 312.496094 235.117188 L 324.402344 235.117188 C 327.679688 235.117188 330.351562 232.441406 330.351562 229.164062 C 330.351562 225.882812 327.679688 223.210938 324.402344 223.210938 L 312.496094 223.210938 C 309.21875 223.210938 306.542969 225.882812 306.542969 229.164062 C 306.542969 232.441406 309.21875 235.117188 312.496094 235.117188 " fill-opacity="1" fill-rule="nonzero"/></svg>