<svg xmlns="http://www.w3.org/2000/svg" xmlns:xlink="http://www.w3.org/1999/xlink" width="500" zoomAndPan="magnify" viewBox="0 0 375 374.999991" height="500" preserveAspectRatio="xMidYMid meet" version="1.0"><defs><clipPath id="05b7f7299e"><path d="M 4.902344 12.207031 L 370 12.207031 L 370 362.457031 L 4.902344 362.457031 Z M 4.902344 12.207031 " clip-rule="nonzero"/></clipPath></defs><rect x="-37.5" width="450" fill="#ffffff" y="-37.499999" height="449.999989" fill-opacity="1"/><rect x="-37.5" width="450" fill="#ffffff" y="-37.499999" height="449.999989" fill-opacity="1"/><g clip-path="url(#05b7f7299e)"><path fill="#3461ab" d="M 367.730469 261.082031 L 356.792969 253.785156 C 346.136719 246.667969 333.449219 245.875 321.980469 251.597656 L 268.980469 278.050781 C 262.636719 264.394531 248.800781 254.898438 232.773438 254.898438 L 187.933594 254.898438 C 176.972656 254.898438 166.746094 252.632812 159.863281 248.699219 C 145.550781 240.492188 131.191406 236.667969 114.699219 236.667969 L 110.609375 236.667969 C 95.144531 236.667969 80.292969 241.257812 69.113281 249.210938 L 69.113281 238.109375 C 69.113281 235.601562 67.078125 233.566406 64.574219 233.566406 L 9.445312 233.566406 C 6.9375 233.566406 4.902344 235.601562 4.902344 238.109375 L 4.902344 357.96875 C 4.902344 360.476562 6.9375 362.511719 9.445312 362.511719 L 64.574219 362.511719 C 67.078125 362.511719 69.113281 360.476562 69.113281 357.96875 L 69.113281 346.078125 L 79.460938 339.152344 C 87.585938 333.71875 96.457031 332.355469 105.828125 335.117188 L 176.296875 355.890625 C 185.625 358.636719 194.898438 360 204.027344 360 C 222.375 360 240.101562 354.472656 256.316406 343.574219 L 367.738281 268.628906 C 368.996094 267.78125 369.753906 266.363281 369.746094 264.851562 C 369.753906 263.335938 368.996094 261.921875 367.730469 261.082031 Z M 60.03125 353.421875 L 13.984375 353.421875 L 13.984375 242.648438 L 60.03125 242.648438 Z M 251.25 336.035156 C 229.292969 350.800781 204.261719 354.65625 178.871094 347.175781 L 108.398438 326.40625 C 96.484375 322.894531 84.730469 324.695312 74.40625 331.605469 L 69.113281 335.148438 L 69.113281 260.996094 C 78.941406 251.4375 94.3125 245.761719 110.609375 245.761719 L 114.699219 245.761719 C 129.753906 245.761719 142.289062 249.097656 155.355469 256.585938 C 163.566406 261.292969 175.441406 263.988281 187.933594 263.988281 L 232.78125 263.988281 C 249.011719 263.988281 262.355469 276.605469 263.523438 292.539062 L 184.691406 292.539062 C 182.1875 292.539062 180.152344 294.574219 180.152344 297.082031 C 180.152344 299.585938 182.1875 301.625 184.691406 301.625 L 268.140625 301.625 C 270.644531 301.625 272.679688 299.585938 272.679688 297.082031 L 272.679688 294.804688 C 272.679688 292.054688 272.402344 289.367188 271.871094 286.773438 L 326.039062 259.734375 C 334.507812 255.511719 343.878906 256.09375 351.75 261.351562 L 357.050781 264.886719 Z M 232.820312 237.304688 C 252.992188 237.304688 270.925781 230.855469 285.003906 218.617188 L 300.816406 237.34375 C 301.679688 238.363281 302.953125 238.957031 304.285156 238.957031 C 305.617188 238.957031 306.886719 238.363281 307.75 237.34375 L 342.835938 195.785156 C 344.675781 193.605469 345.074219 190.648438 343.871094 188.058594 C 342.667969 185.476562 340.15625 183.871094 337.300781 183.871094 L 326.78125 183.871094 L 326.78125 110.691406 C 326.78125 105.210938 322.320312 100.75 316.839844 100.75 L 291.726562 100.75 C 287.003906 100.75 283.035156 104.066406 282.035156 108.496094 C 275.398438 100.054688 268.941406 92.886719 264.136719 87.816406 C 268.804688 85.195312 271.976562 80.199219 271.976562 74.46875 C 271.976562 66.636719 266.058594 60.171875 258.457031 59.292969 L 268.480469 49.269531 C 271.402344 46.351562 273.015625 42.453125 273.015625 38.304688 C 273.015625 34.148438 271.402344 30.257812 268.480469 27.335938 C 263.03125 21.886719 254.308594 21.285156 248.125 25.949219 L 246.179688 21.203125 C 243.917969 15.671875 238.792969 12.234375 232.8125 12.234375 C 226.832031 12.234375 221.714844 15.671875 219.453125 21.203125 L 217.507812 25.949219 C 211.359375 21.285156 202.617188 21.878906 197.160156 27.335938 C 191.113281 33.382812 191.113281 43.222656 197.160156 49.269531 L 207.183594 59.292969 C 199.582031 60.171875 193.664062 66.644531 193.664062 74.46875 C 193.664062 80.199219 196.835938 85.195312 201.511719 87.816406 C 191.792969 98.0625 174.914062 117.335938 164.148438 137.796875 C 151.757812 161.351562 154.589844 188.730469 171.539062 209.253906 C 186.691406 227.609375 207.886719 237.304688 232.820312 237.304688 Z M 286.320312 192.949219 C 288.828125 192.949219 290.863281 190.910156 290.863281 188.40625 L 290.863281 110.691406 C 290.863281 110.230469 291.257812 109.835938 291.71875 109.835938 L 316.832031 109.835938 C 317.296875 109.835938 317.6875 110.230469 317.6875 110.691406 L 317.6875 188.40625 C 317.6875 190.910156 319.726562 192.949219 322.230469 192.949219 L 333.335938 192.949219 L 304.277344 227.367188 L 275.214844 192.949219 Z M 203.578125 42.851562 C 201.074219 40.347656 201.074219 36.265625 203.578125 33.761719 C 205.851562 31.492188 209.484375 31.25 212.035156 33.203125 C 214.320312 34.949219 217.113281 35.503906 219.890625 34.746094 C 222.667969 33.988281 224.804688 32.113281 225.894531 29.445312 L 227.855469 24.648438 C 228.710938 22.566406 230.5625 21.316406 232.8125 21.316406 C 235.0625 21.316406 236.914062 22.558594 237.769531 24.648438 L 239.730469 29.445312 C 240.820312 32.113281 242.957031 33.996094 245.734375 34.746094 C 248.511719 35.503906 251.304688 34.949219 253.589844 33.203125 C 256.140625 31.25 259.773438 31.492188 262.046875 33.761719 C 263.25 34.964844 263.914062 36.585938 263.914062 38.3125 C 263.914062 40.035156 263.25 41.648438 262.046875 42.859375 L 245.71875 59.1875 L 219.90625 59.1875 Z M 208.945312 68.269531 L 256.6875 68.269531 C 260.109375 68.269531 262.894531 71.054688 262.894531 74.476562 C 262.894531 77.898438 260.109375 80.683594 256.6875 80.683594 L 208.945312 80.683594 C 205.523438 80.683594 202.738281 77.898438 202.738281 74.476562 C 202.738281 71.054688 205.523438 68.269531 208.945312 68.269531 Z M 172.179688 142.027344 C 184.230469 119.121094 204.511719 97.578125 212.261719 89.769531 L 253.371094 89.769531 C 259.132812 95.574219 270.960938 108.09375 281.78125 123.316406 L 281.78125 183.871094 L 271.257812 183.871094 C 268.402344 183.871094 265.890625 185.476562 264.6875 188.066406 C 263.484375 190.65625 263.886719 193.613281 265.722656 195.785156 L 279.136719 211.675781 C 266.617188 222.660156 251.070312 228.230469 232.820312 228.230469 C 210.6875 228.230469 191.914062 219.667969 178.539062 203.46875 C 163.960938 185.824219 161.523438 162.277344 172.179688 142.027344 Z M 242.304688 171.300781 C 242.304688 168.4375 239.488281 166.902344 233.0625 164.078125 C 232.359375 163.769531 231.65625 163.457031 230.941406 163.140625 C 230.261719 162.828125 229.582031 162.535156 228.90625 162.238281 C 222.375 159.363281 214.246094 155.78125 214.246094 146.699219 C 214.246094 138.832031 220.222656 132.210938 228.269531 130.363281 L 228.269531 121.839844 C 228.269531 119.335938 230.308594 117.296875 232.8125 117.296875 C 235.316406 117.296875 237.355469 119.335938 237.355469 121.839844 L 237.355469 130.363281 C 245.40625 132.203125 251.378906 138.824219 251.378906 146.699219 C 251.378906 149.203125 249.34375 151.238281 246.839844 151.238281 C 244.332031 151.238281 242.296875 149.203125 242.296875 146.699219 C 242.296875 142.421875 238.042969 138.941406 232.8125 138.941406 C 227.582031 138.941406 223.328125 142.421875 223.328125 146.699219 C 223.328125 149.558594 226.144531 151.097656 232.570312 153.917969 C 233.273438 154.230469 233.976562 154.539062 234.691406 154.859375 C 235.371094 155.167969 236.050781 155.464844 236.726562 155.757812 C 243.257812 158.636719 251.386719 162.214844 251.386719 171.300781 C 251.386719 179.164062 245.40625 185.789062 237.363281 187.632812 L 237.363281 196.148438 C 237.363281 198.65625 235.324219 200.691406 232.820312 200.691406 C 230.316406 200.691406 228.277344 198.65625 228.277344 196.148438 L 228.277344 187.632812 C 220.222656 185.792969 214.253906 179.171875 214.253906 171.300781 C 214.253906 168.792969 216.289062 166.757812 218.792969 166.757812 C 221.300781 166.757812 223.335938 168.792969 223.335938 171.300781 C 223.335938 175.574219 227.589844 179.058594 232.820312 179.058594 C 238.050781 179.058594 242.304688 175.574219 242.304688 171.300781 Z M 242.304688 171.300781 " fill-opacity="1" fill-rule="nonzero"/></g></svg>