<svg xmlns="http://www.w3.org/2000/svg" xmlns:xlink="http://www.w3.org/1999/xlink" width="500" zoomAndPan="magnify" viewBox="0 0 375 374.999991" height="500" preserveAspectRatio="xMidYMid meet" version="1.0"><defs><clipPath id="347a77f20b"><path d="M 6 11.738281 L 64 11.738281 L 64 20 L 6 20 Z M 6 11.738281 " clip-rule="nonzero"/></clipPath><clipPath id="5a5eb6abc4"><path d="M 113 305 L 358 305 L 358 363.488281 L 113 363.488281 Z M 113 305 " clip-rule="nonzero"/></clipPath><clipPath id="5ffc66d884"><path d="M 101 305 L 110 305 L 110 363.488281 L 101 363.488281 Z M 101 305 " clip-rule="nonzero"/></clipPath><clipPath id="de587fd586"><path d="M 361 305 L 369.347656 305 L 369.347656 363.488281 L 361 363.488281 Z M 361 305 " clip-rule="nonzero"/></clipPath><clipPath id="8f22ac7049"><path d="M 101 11.738281 L 369.347656 11.738281 L 369.347656 280 L 101 280 Z M 101 11.738281 " clip-rule="nonzero"/></clipPath><clipPath id="7c1a5be4c9"><path d="M 231 146.054688 L 278.125 146.054688 L 278.125 205 L 231 205 Z M 231 146.054688 " clip-rule="nonzero"/></clipPath><clipPath id="d352633356"><path d="M 179 163 L 223 163 L 223 254.804688 L 179 254.804688 Z M 179 163 " clip-rule="nonzero"/></clipPath><clipPath id="cfbd273d25"><path d="M 128.125 151 L 175 151 L 175 254 L 128.125 254 Z M 128.125 151 " clip-rule="nonzero"/></clipPath></defs><path fill="#3461ab" d="M 56.738281 236.464844 L 38.867188 254.335938 L 38.867188 37.199219 L 56.730469 55.066406 C 57.519531 55.851562 58.550781 56.246094 59.585938 56.246094 C 60.617188 56.246094 61.652344 55.851562 62.4375 55.066406 C 64.015625 53.492188 64.015625 50.933594 62.4375 49.351562 L 37.683594 24.589844 C 37.679688 24.582031 37.664062 24.574219 37.65625 24.5625 C 37.574219 24.476562 37.480469 24.398438 37.390625 24.320312 C 37.339844 24.28125 37.285156 24.246094 37.234375 24.203125 C 37.179688 24.160156 37.128906 24.117188 37.074219 24.082031 C 37.011719 24.039062 36.953125 24.003906 36.890625 23.96875 C 36.839844 23.941406 36.792969 23.90625 36.734375 23.878906 C 36.671875 23.84375 36.609375 23.816406 36.546875 23.789062 C 36.488281 23.761719 36.433594 23.730469 36.378906 23.710938 C 36.3125 23.683594 36.25 23.660156 36.1875 23.640625 C 36.125 23.621094 36.066406 23.597656 36.003906 23.578125 C 35.941406 23.554688 35.878906 23.542969 35.816406 23.527344 C 35.753906 23.515625 35.6875 23.492188 35.625 23.480469 C 35.546875 23.464844 35.472656 23.457031 35.402344 23.445312 C 35.34375 23.4375 35.296875 23.421875 35.238281 23.421875 C 34.972656 23.394531 34.703125 23.394531 34.4375 23.421875 C 34.382812 23.429688 34.324219 23.4375 34.277344 23.445312 C 34.199219 23.457031 34.121094 23.464844 34.050781 23.480469 C 33.988281 23.492188 33.925781 23.507812 33.859375 23.527344 C 33.796875 23.542969 33.734375 23.554688 33.671875 23.578125 C 33.609375 23.597656 33.546875 23.621094 33.488281 23.640625 C 33.425781 23.660156 33.363281 23.683594 33.300781 23.710938 C 33.242188 23.730469 33.1875 23.761719 33.128906 23.789062 C 33.066406 23.816406 33.003906 23.84375 32.941406 23.878906 C 32.890625 23.90625 32.835938 23.941406 32.785156 23.96875 C 32.722656 24.003906 32.660156 24.039062 32.601562 24.082031 C 32.546875 24.117188 32.496094 24.160156 32.441406 24.203125 C 32.390625 24.246094 32.335938 24.28125 32.285156 24.320312 C 32.195312 24.398438 32.105469 24.476562 32.019531 24.5625 C 32.011719 24.566406 32 24.574219 31.992188 24.589844 L 7.210938 49.351562 C 5.632812 50.925781 5.632812 53.484375 7.210938 55.066406 C 8.785156 56.640625 11.34375 56.640625 12.921875 55.066406 L 30.789062 37.199219 L 30.789062 254.335938 L 12.921875 236.472656 C 11.347656 234.898438 8.789062 234.898438 7.210938 236.472656 C 5.632812 238.046875 5.632812 240.605469 7.210938 242.183594 L 31.605469 266.582031 C 32.34375 267.558594 33.511719 268.199219 34.832031 268.199219 C 36.152344 268.199219 37.320312 267.558594 38.058594 266.582031 L 62.453125 242.183594 C 64.027344 240.609375 64.027344 238.050781 62.453125 236.472656 C 60.871094 234.890625 58.3125 234.890625 56.738281 236.464844 Z M 56.738281 236.464844 " fill-opacity="1" fill-rule="nonzero"/><g clip-path="url(#347a77f20b)"><path fill="#3461ab" d="M 10.175781 19.894531 L 59.472656 19.894531 C 61.703125 19.894531 63.515625 18.085938 63.515625 15.851562 C 63.515625 13.625 61.707031 11.8125 59.472656 11.8125 L 10.175781 11.8125 C 7.945312 11.8125 6.132812 13.617188 6.132812 15.851562 C 6.140625 18.085938 7.945312 19.894531 10.175781 19.894531 Z M 10.175781 19.894531 " fill-opacity="1" fill-rule="nonzero"/></g><path fill="#3461ab" d="M 59.480469 271.699219 L 10.175781 271.699219 C 7.945312 271.699219 6.132812 273.503906 6.132812 275.738281 C 6.132812 277.976562 7.941406 279.78125 10.175781 279.78125 L 59.472656 279.78125 C 61.703125 279.78125 63.515625 277.976562 63.515625 275.738281 C 63.515625 273.503906 61.707031 271.699219 59.480469 271.699219 Z M 59.480469 271.699219 " fill-opacity="1" fill-rule="nonzero"/><g clip-path="url(#5a5eb6abc4)"><path fill="#3461ab" d="M 356.175781 331.214844 L 331.78125 306.820312 C 330.207031 305.246094 327.648438 305.246094 326.066406 306.820312 C 324.492188 308.394531 324.492188 310.953125 326.066406 312.535156 L 343.933594 330.402344 L 126.792969 330.402344 L 144.660156 312.535156 C 146.234375 310.960938 146.234375 308.402344 144.660156 306.820312 C 143.085938 305.246094 140.527344 305.246094 138.945312 306.820312 L 114.175781 331.582031 C 114.085938 331.671875 113.992188 331.769531 113.917969 331.871094 C 113.894531 331.890625 113.882812 331.917969 113.859375 331.945312 C 113.796875 332.023438 113.734375 332.109375 113.675781 332.191406 C 113.664062 332.214844 113.648438 332.234375 113.636719 332.261719 C 113.578125 332.355469 113.523438 332.445312 113.472656 332.539062 C 113.464844 332.550781 113.460938 332.566406 113.453125 332.585938 C 113.394531 332.683594 113.347656 332.789062 113.304688 332.894531 C 113.296875 332.902344 113.296875 332.917969 113.289062 332.925781 C 113.25 333.035156 113.207031 333.148438 113.171875 333.261719 C 113.164062 333.273438 113.164062 333.289062 113.164062 333.296875 C 113.128906 333.410156 113.101562 333.519531 113.078125 333.640625 C 113.074219 333.675781 113.074219 333.703125 113.066406 333.738281 C 113.050781 333.835938 113.03125 333.9375 113.023438 334.035156 C 113.007812 334.167969 113.003906 334.300781 113.003906 334.433594 C 113.003906 334.570312 113.007812 334.703125 113.023438 334.835938 C 113.03125 334.933594 113.050781 335.03125 113.066406 335.132812 C 113.074219 335.167969 113.074219 335.195312 113.078125 335.230469 C 113.101562 335.339844 113.136719 335.460938 113.164062 335.574219 C 113.171875 335.585938 113.171875 335.601562 113.171875 335.617188 C 113.207031 335.726562 113.25 335.839844 113.289062 335.953125 C 113.296875 335.96875 113.296875 335.972656 113.304688 335.988281 C 113.347656 336.09375 113.394531 336.191406 113.453125 336.296875 C 113.460938 336.3125 113.464844 336.332031 113.480469 336.347656 C 113.53125 336.4375 113.585938 336.523438 113.640625 336.613281 C 113.65625 336.640625 113.671875 336.664062 113.683594 336.691406 C 113.734375 336.769531 113.796875 336.847656 113.851562 336.917969 C 113.875 336.945312 113.894531 336.980469 113.921875 337.007812 C 113.988281 337.085938 114.0625 337.164062 114.132812 337.238281 C 114.15625 337.261719 114.167969 337.28125 114.191406 337.300781 L 138.957031 362.070312 C 139.746094 362.859375 140.78125 363.253906 141.8125 363.253906 C 142.847656 363.253906 143.878906 362.859375 144.667969 362.070312 C 146.242188 360.496094 146.242188 357.9375 144.667969 356.355469 L 126.800781 338.492188 L 343.9375 338.492188 L 326.074219 356.355469 C 324.5 357.929688 324.5 360.488281 326.074219 362.070312 C 326.859375 362.859375 327.894531 363.253906 328.925781 363.253906 C 329.960938 363.253906 330.992188 362.859375 331.78125 362.070312 L 356.175781 337.675781 C 357.152344 336.9375 357.792969 335.769531 357.792969 334.449219 C 357.792969 333.128906 357.152344 331.953125 356.175781 331.214844 Z M 356.175781 331.214844 " fill-opacity="1" fill-rule="nonzero"/></g><g clip-path="url(#5ffc66d884)"><path fill="#3461ab" d="M 105.453125 305.75 C 103.226562 305.75 101.414062 307.558594 101.414062 309.792969 L 101.414062 359.089844 C 101.414062 361.320312 103.21875 363.132812 105.453125 363.132812 C 107.6875 363.132812 109.496094 361.324219 109.496094 359.089844 L 109.496094 309.792969 C 109.496094 307.558594 107.6875 305.75 105.453125 305.75 Z M 105.453125 305.75 " fill-opacity="1" fill-rule="nonzero"/></g><g clip-path="url(#de587fd586)"><path fill="#3461ab" d="M 365.332031 305.75 C 363.105469 305.75 361.292969 307.558594 361.292969 309.792969 L 361.292969 359.089844 C 361.292969 361.320312 363.097656 363.132812 365.332031 363.132812 C 367.570312 363.132812 369.375 361.324219 369.375 359.089844 L 369.375 309.792969 C 369.375 307.558594 367.570312 305.75 365.332031 305.75 Z M 365.332031 305.75 " fill-opacity="1" fill-rule="nonzero"/></g><g clip-path="url(#8f22ac7049)"><path fill="#3461ab" d="M 365.375 11.816406 L 105.496094 11.816406 C 103.269531 11.816406 101.453125 13.625 101.453125 15.859375 L 101.453125 275.738281 C 101.453125 277.96875 103.261719 279.78125 105.496094 279.78125 L 365.375 279.78125 C 367.605469 279.78125 369.417969 277.976562 369.417969 275.738281 L 369.417969 15.859375 C 369.410156 13.625 367.605469 11.816406 365.375 11.816406 Z M 361.335938 271.699219 L 109.53125 271.699219 L 109.53125 19.894531 L 361.335938 19.894531 Z M 361.335938 271.699219 " fill-opacity="1" fill-rule="nonzero"/></g><g clip-path="url(#7c1a5be4c9)"><path fill="#3461ab" d="M 232.621094 204.988281 L 232.621094 195.5625 L 255.40625 176.660156 C 257.300781 175.078125 258.929688 173.644531 260.285156 172.347656 C 261.644531 171.019531 262.6875 169.726562 263.414062 168.464844 C 264.140625 167.167969 264.503906 165.761719 264.503906 164.246094 C 264.503906 161.785156 263.523438 159.855469 261.566406 158.46875 C 259.609375 157.078125 257.207031 156.382812 254.363281 156.382812 C 251.332031 156.382812 248.886719 157.15625 247.023438 158.703125 C 245.191406 160.21875 244.273438 162.335938 244.273438 165.050781 L 231.71875 165.050781 C 231.71875 159.179688 233.851562 154.550781 238.117188 151.171875 C 242.410156 147.761719 247.890625 146.054688 254.554688 146.054688 C 259.070312 146.054688 263.003906 146.859375 266.351562 148.472656 C 269.730469 150.050781 272.351562 152.199219 274.214844 154.914062 C 276.078125 157.628906 277.007812 160.679688 277.007812 164.058594 C 277.007812 166.773438 276.457031 169.300781 275.351562 171.636719 C 274.246094 173.941406 272.523438 176.265625 270.1875 178.601562 C 267.851562 180.90625 264.867188 183.402344 261.234375 186.085938 L 251.476562 193.855469 L 251.476562 194.28125 L 278.050781 194.28125 L 278.050781 204.988281 Z M 232.621094 204.988281 " fill-opacity="1" fill-rule="nonzero"/></g><g clip-path="url(#d352633356)"><path fill="#3461ab" d="M 220.976562 180.734375 L 220.976562 193.996094 L 179.148438 193.996094 L 179.148438 180.734375 Z M 189.472656 163.300781 L 206.625 163.300781 L 206.625 231.613281 C 206.625 233.917969 206.972656 235.6875 207.667969 236.917969 C 208.394531 238.117188 209.339844 238.941406 210.507812 239.382812 C 211.675781 239.824219 212.972656 240.042969 214.394531 240.042969 C 215.46875 240.042969 216.445312 239.964844 217.332031 239.808594 C 218.246094 239.652344 218.941406 239.507812 219.414062 239.382812 L 222.304688 252.789062 C 221.390625 253.105469 220.078125 253.453125 218.371094 253.832031 C 216.699219 254.210938 214.644531 254.429688 212.214844 254.492188 C 207.917969 254.621094 204.050781 253.972656 200.609375 252.550781 C 197.164062 251.097656 194.433594 248.855469 192.410156 245.824219 C 190.421875 242.792969 189.441406 239.003906 189.472656 234.453125 Z M 189.472656 163.300781 " fill-opacity="1" fill-rule="nonzero"/></g><g clip-path="url(#cfbd273d25)"><path fill="#3461ab" d="M 171.210938 180.734375 L 171.210938 193.996094 L 128.195312 193.996094 L 128.195312 180.734375 Z M 138.949219 253.5 L 138.949219 173.863281 C 138.949219 168.96875 139.960938 164.894531 141.980469 161.640625 C 144.035156 158.386719 146.78125 155.957031 150.226562 154.347656 C 153.667969 152.734375 157.488281 151.929688 161.691406 151.929688 C 164.660156 151.929688 167.296875 152.167969 169.601562 152.640625 C 171.90625 153.113281 173.613281 153.539062 174.71875 153.917969 L 171.304688 167.183594 C 170.578125 166.964844 169.664062 166.742188 168.558594 166.519531 C 167.453125 166.269531 166.222656 166.140625 164.863281 166.140625 C 161.671875 166.140625 159.414062 166.914062 158.089844 168.464844 C 156.792969 169.980469 156.148438 172.160156 156.148438 175 L 156.148438 253.5 Z M 138.949219 253.5 " fill-opacity="1" fill-rule="nonzero"/></g></svg>