<svg xmlns="http://www.w3.org/2000/svg" xmlns:xlink="http://www.w3.org/1999/xlink" width="500" zoomAndPan="magnify" viewBox="0 0 375 374.999991" height="500" preserveAspectRatio="xMidYMid meet" version="1.0"><defs><clipPath id="72ef6d724d"><path d="M 24 3.6875 L 361.5 3.6875 L 361.5 364 L 24 364 Z M 24 3.6875 " clip-rule="nonzero"/></clipPath></defs><g clip-path="url(#72ef6d724d)"><path fill="#3461ab" d="M 195.84375 234.886719 C 195.683594 236.734375 195.535156 238.578125 195.398438 240.425781 C 195.320312 241.453125 195.246094 242.472656 195.167969 243.503906 C 195.09375 244.53125 195.28125 245.894531 195 246.851562 C 194.640625 248.09375 193.6875 247.78125 192.570312 247.746094 C 191.640625 247.71875 190.707031 247.726562 189.777344 247.71875 C 187.742188 247.707031 185.710938 247.691406 183.675781 247.679688 C 179.695312 247.65625 175.707031 247.636719 171.726562 247.621094 C 163.3125 247.59375 154.898438 247.582031 146.476562 247.589844 C 138.652344 247.589844 130.824219 247.609375 123 247.636719 C 119.617188 247.652344 116.226562 247.664062 112.84375 247.683594 C 111.078125 247.699219 109.304688 247.707031 107.539062 247.71875 C 106.304688 247.726562 104.492188 248.09375 103.335938 247.664062 C 102.925781 246.636719 103.449219 244.640625 103.511719 243.515625 C 103.609375 241.730469 103.683594 239.945312 103.746094 238.160156 C 103.878906 234.296875 102.421875 225.089844 105.859375 222.410156 C 106.878906 221.609375 107.867188 220.761719 108.859375 219.929688 C 111.023438 218.113281 113.160156 216.273438 115.273438 214.410156 C 119.3125 210.859375 123.25 207.199219 127.140625 203.496094 C 134.046875 196.929688 140.84375 190.210938 147.191406 183.109375 C 150.144531 179.8125 153.148438 176.433594 155.648438 172.773438 C 157.878906 169.507812 159.808594 165.546875 158.351562 161.539062 C 156.941406 157.660156 152.558594 156.070312 148.875 155.195312 C 144.363281 154.117188 139.65625 154.199219 135.0625 154.546875 C 130.863281 154.859375 126.71875 155.519531 122.597656 156.367188 C 118.476562 157.214844 114.257812 158.621094 110.054688 159.265625 C 110.714844 157.898438 110.738281 155.902344 111.007812 154.414062 C 111.390625 152.308594 111.773438 150.207031 112.152344 148.101562 C 112.425781 146.605469 112.722656 145.121094 112.96875 143.625 C 113.253906 141.902344 113.515625 140.171875 113.773438 138.433594 C 114.003906 136.898438 113.753906 133.300781 115.476562 132.820312 C 117.648438 132.222656 120.179688 132.140625 122.417969 131.828125 C 124.339844 131.558594 126.273438 131.308594 128.203125 131.070312 C 132.261719 130.585938 136.332031 130.1875 140.40625 129.890625 C 148.179688 129.328125 156.066406 128.964844 163.847656 129.570312 C 177.472656 130.632812 195.28125 135.390625 200.191406 149.996094 C 205.265625 165.082031 193.050781 180.242188 183.953125 190.90625 C 178.890625 196.847656 173.519531 202.507812 167.953125 207.984375 C 165.25 210.644531 162.507812 213.273438 159.734375 215.863281 C 156.960938 218.457031 153.722656 220.941406 151.144531 223.796875 C 153.6875 223.4375 156.503906 223.796875 159.066406 223.820312 C 161.628906 223.839844 164.265625 223.804688 166.863281 223.769531 C 172.246094 223.695312 177.632812 223.609375 183.015625 223.464844 C 184.699219 223.421875 186.378906 223.375 188.054688 223.285156 C 189.394531 223.214844 190.734375 223.117188 192.078125 223.007812 C 193.417969 222.894531 195.292969 222.359375 196.65625 222.671875 C 197.101562 223.3125 196.667969 224.757812 196.613281 225.507812 C 196.539062 226.492188 196.460938 227.480469 196.378906 228.46875 C 196.257812 229.90625 196.128906 231.335938 196.003906 232.773438 C 195.941406 233.484375 195.878906 234.183594 195.816406 234.894531 Z M 308.929688 217.183594 C 307.761719 217.523438 305.96875 217.105469 304.722656 217.074219 C 302.800781 217.011719 300.867188 216.976562 298.9375 216.953125 C 296.144531 216.925781 293.226562 217.191406 290.433594 216.980469 C 289.863281 218.066406 290.121094 220.179688 290.058594 221.421875 C 289.960938 223.449219 289.890625 225.480469 289.835938 227.515625 C 289.6875 233.058594 289.542969 238.625 289.640625 244.167969 C 289.648438 244.691406 289.980469 246.082031 289.488281 246.503906 C 288.953125 246.960938 287.394531 246.621094 286.796875 246.609375 C 285.207031 246.566406 283.609375 246.566406 282.019531 246.546875 C 278.746094 246.511719 275.472656 246.488281 272.195312 246.488281 C 269.234375 246.488281 266.273438 246.503906 263.3125 246.53125 C 261.730469 246.546875 260.144531 246.566406 258.570312 246.585938 C 257.214844 246.609375 255.046875 247.074219 253.773438 246.523438 C 253.289062 245.453125 253.941406 243.273438 254.050781 242.121094 C 254.171875 240.871094 254.28125 239.617188 254.386719 238.367188 C 254.621094 235.601562 254.835938 232.832031 255.03125 230.066406 C 255.226562 227.300781 255.402344 224.777344 255.566406 222.128906 C 255.671875 220.457031 255.96875 218.636719 255.832031 216.96875 C 253.925781 217.335938 251.691406 217.050781 249.75 217.066406 C 248.417969 217.078125 247.082031 217.09375 245.742188 217.09375 C 236.363281 217.09375 226.984375 217.261719 217.605469 217.425781 C 215.546875 217.460938 212.53125 218.09375 210.558594 217.550781 C 207.078125 216.601562 208.542969 218.066406 207.777344 214.558594 C 206.898438 210.484375 208.246094 204.53125 208.417969 200.320312 C 208.515625 198.019531 208.621094 195.722656 208.710938 193.414062 C 208.78125 191.566406 208.320312 189.226562 209.472656 187.695312 C 210.851562 185.875 212.394531 184.160156 213.808594 182.367188 C 221.023438 173.257812 227.941406 163.894531 234.605469 154.375 C 238.210938 149.226562 241.726562 144.015625 245.160156 138.746094 C 246.152344 137.21875 247.140625 135.691406 248.121094 134.15625 C 248.730469 133.195312 249.515625 131.078125 250.585938 130.5 C 251.65625 129.925781 253.84375 130.417969 254.976562 130.425781 C 256.414062 130.4375 257.847656 130.453125 259.285156 130.464844 C 264.855469 130.515625 270.4375 130.550781 276.007812 130.535156 C 279.203125 130.535156 282.394531 130.515625 285.589844 130.480469 C 286.890625 130.464844 288.1875 130.453125 289.488281 130.4375 C 290.785156 130.425781 293.03125 129.988281 294.246094 130.523438 C 294.609375 131.558594 294.21875 132.800781 294.136719 133.871094 C 294.050781 134.863281 293.988281 135.863281 293.914062 136.859375 C 293.765625 138.839844 293.628906 140.824219 293.488281 142.804688 C 293.230469 146.566406 292.996094 150.324219 292.78125 154.082031 C 292.34375 161.648438 291.988281 169.222656 291.703125 176.800781 C 291.585938 179.816406 291.488281 182.824219 291.40625 185.839844 C 291.371094 187.085938 291.347656 188.328125 291.320312 189.578125 C 291.316406 189.917969 291.132812 190.984375 291.246094 191.289062 C 291.503906 192.019531 292.101562 191.816406 292.808594 191.851562 C 296.324219 192.003906 299.867188 191.96875 303.382812 191.949219 C 304.230469 191.949219 305.078125 191.949219 305.925781 191.90625 C 306.871094 191.867188 308.234375 191.460938 309.09375 191.835938 C 309.558594 192.871094 309.144531 194.617188 309.117188 195.734375 C 309.082031 197.109375 309.046875 198.488281 309.019531 199.863281 C 308.96875 202.378906 308.933594 204.894531 308.914062 207.40625 C 308.898438 209.285156 308.769531 211.277344 308.746094 213.246094 C 308.734375 214.578125 308.769531 215.898438 308.929688 217.164062 Z M 244.601562 180.902344 C 243.128906 182.929688 241.652344 184.957031 240.171875 186.988281 C 238.824219 188.835938 236.800781 190.878906 235.9375 192.96875 C 236.835938 193.207031 237.898438 193.074219 238.835938 193.074219 C 246.132812 193.074219 253.421875 193.074219 260.714844 193.074219 C 260.792969 191.484375 260.867188 189.898438 260.945312 188.308594 C 261.273438 181.4375 261.597656 174.570312 261.925781 167.699219 C 262.070312 164.65625 262.214844 161.605469 262.363281 158.5625 C 262.410156 157.613281 262.453125 156.660156 262.5 155.699219 C 262.515625 155.347656 262.496094 154.949219 262.5625 154.601562 C 259.492188 159.285156 256.492188 164.011719 253.308594 168.625 C 251.601562 171.105469 249.863281 173.5625 248.113281 176.015625 C 246.945312 177.648438 245.777344 179.269531 244.597656 180.894531 Z M 230.910156 195.875 C 229.484375 195.886719 228.625 195.902344 228.316406 195.902344 L 225.390625 195.875 C 225.40625 196.429688 225.421875 196.820312 225.421875 197.042969 C 225.421875 197.464844 225.398438 198.25 225.363281 199.402344 C 225.328125 200.558594 225.289062 201.472656 225.246094 202.148438 L 218.515625 202.148438 C 218.570312 200.335938 218.695312 198.242188 218.890625 195.882812 C 217.644531 195.894531 216.769531 195.910156 216.261719 195.910156 C 215.617188 195.910156 214.652344 195.902344 213.351562 195.882812 L 213.367188 197.070312 C 213.367188 197.652344 213.359375 198.265625 213.335938 198.898438 L 213.273438 201.085938 L 213.050781 206.003906 L 212.574219 212.757812 C 213.976562 212.742188 214.859375 212.730469 215.21875 212.730469 L 218.089844 212.757812 L 218.296875 205.90625 L 225.039062 205.90625 C 224.960938 208.511719 224.824219 210.796875 224.621094 212.757812 C 226.148438 212.742188 227.117188 212.730469 227.519531 212.730469 L 230.214844 212.757812 C 230.214844 209.875 230.257812 207.394531 230.339844 205.332031 C 230.421875 203.265625 230.609375 200.113281 230.902344 195.875 Z M 253.21875 203.976562 C 253.21875 202.65625 252.988281 201.488281 252.539062 200.472656 C 252.085938 199.460938 251.398438 198.5625 250.488281 197.785156 C 249.570312 197.007812 248.507812 196.4375 247.285156 196.082031 C 246.0625 195.726562 244.796875 195.546875 243.476562 195.546875 C 241.414062 195.546875 239.566406 195.929688 237.917969 196.699219 C 236.273438 197.464844 235.035156 198.535156 234.195312 199.898438 C 233.355469 201.257812 232.9375 202.84375 232.9375 204.648438 C 232.9375 205.878906 233.140625 206.996094 233.527344 208 C 233.925781 209.007812 234.589844 209.917969 235.535156 210.734375 C 236.480469 211.554688 237.59375 212.144531 238.871094 212.515625 C 240.148438 212.882812 241.484375 213.0625 242.878906 213.0625 C 244.277344 213.0625 245.644531 212.875 246.945312 212.5 C 248.25 212.125 249.371094 211.535156 250.308594 210.730469 C 251.246094 209.921875 251.96875 208.9375 252.46875 207.78125 C 252.96875 206.621094 253.21875 205.351562 253.21875 203.96875 Z M 272.882812 195.875 L 267.425781 195.875 C 267.386719 195.875 267.34375 196.535156 267.289062 197.847656 C 267.234375 199.203125 267.148438 200.695312 267.039062 202.320312 C 266.914062 204.234375 266.816406 205.460938 266.738281 206.003906 C 266.675781 206.53125 266.574219 206.964844 266.441406 207.296875 C 266.308594 207.652344 266.15625 207.941406 265.980469 208.179688 C 265.84375 208.375 265.675781 208.546875 265.488281 208.691406 C 265.273438 208.851562 265.03125 208.972656 264.757812 209.0625 C 264.414062 209.171875 264.042969 209.222656 263.648438 209.222656 C 263.1875 209.222656 262.746094 209.144531 262.320312 209 C 261.898438 208.851562 261.5625 208.628906 261.328125 208.339844 C 261.089844 208.046875 260.925781 207.691406 260.832031 207.269531 C 260.742188 206.851562 260.695312 206.324219 260.695312 205.699219 C 260.695312 205.371094 260.714844 204.769531 260.75 203.90625 C 260.785156 203.039062 260.839844 202.113281 260.917969 201.125 L 261.285156 195.875 C 260.1875 195.886719 259.3125 195.902344 258.652344 195.902344 C 258.125 195.902344 257.222656 195.894531 255.9375 195.875 L 255.714844 200.757812 C 255.664062 201.765625 255.617188 202.523438 255.574219 203.042969 L 255.414062 205.023438 C 255.359375 205.773438 255.316406 206.351562 255.304688 206.746094 C 255.289062 207.152344 255.277344 207.449219 255.277344 207.644531 C 255.277344 208.226562 255.351562 208.777344 255.496094 209.289062 C 255.628906 209.742188 255.808594 210.132812 256.039062 210.457031 C 256.269531 210.785156 256.601562 211.105469 257.027344 211.417969 C 257.5 211.757812 258.046875 212.050781 258.6875 212.300781 C 259.320312 212.550781 260.035156 212.742188 260.828125 212.875 C 261.679688 213.007812 262.578125 213.070312 263.496094 213.070312 C 264.523438 213.070312 265.542969 212.988281 266.550781 212.8125 C 267.558594 212.640625 268.457031 212.347656 269.246094 211.929688 C 270.039062 211.515625 270.644531 211.046875 271.054688 210.527344 C 271.464844 210.007812 271.761719 209.394531 271.9375 208.691406 C 272.117188 207.992188 272.222656 206.777344 272.25 205.066406 C 272.25 204.960938 272.25 204.824219 272.261719 204.65625 L 272.867188 195.875 Z M 290.722656 200.335938 C 290.722656 199.839844 290.660156 199.375 290.53125 198.945312 C 290.40625 198.515625 290.222656 198.132812 289.996094 197.8125 C 289.765625 197.492188 289.472656 197.203125 289.125 196.945312 C 288.777344 196.6875 288.355469 196.464844 287.847656 196.285156 C 287.339844 196.101562 286.777344 195.984375 286.160156 195.921875 C 285.332031 195.839844 284.394531 195.796875 283.339844 195.796875 C 282.441406 195.796875 281.519531 195.820312 280.566406 195.851562 C 279.621094 195.886719 278.816406 195.910156 278.15625 195.910156 C 277.496094 195.910156 276.6875 195.894531 275.660156 195.875 C 275.660156 196.882812 275.648438 198.238281 275.613281 199.9375 C 275.578125 201.640625 275.527344 203.261719 275.464844 204.796875 C 275.402344 206.332031 275.320312 207.679688 275.230469 208.839844 C 275.140625 210 275.015625 211.304688 274.855469 212.757812 C 276.097656 212.742188 276.96875 212.730469 277.441406 212.730469 C 277.847656 212.730469 278.746094 212.738281 280.128906 212.757812 C 280.15625 210.417969 280.203125 208.035156 280.289062 205.601562 C 280.371094 203.167969 280.460938 201.105469 280.566406 199.417969 C 280.976562 199.410156 281.335938 199.398438 281.648438 199.390625 C 281.960938 199.375 282.253906 199.367188 282.546875 199.367188 C 283.394531 199.367188 284.027344 199.429688 284.429688 199.5625 C 284.839844 199.695312 285.136719 199.898438 285.324219 200.160156 C 285.511719 200.433594 285.609375 200.738281 285.609375 201.09375 C 285.609375 201.507812 285.484375 201.910156 285.234375 202.292969 C 284.984375 202.675781 284.609375 202.953125 284.125 203.136719 C 283.628906 203.316406 283.089844 203.40625 282.484375 203.40625 C 282.054688 203.40625 281.617188 203.363281 281.171875 203.28125 L 282.441406 206.78125 C 282.832031 207.839844 283.121094 208.660156 283.324219 209.242188 C 283.421875 209.507812 283.546875 209.882812 283.6875 210.367188 C 284.03125 211.527344 284.269531 212.328125 284.402344 212.75 C 285.75 212.738281 286.722656 212.722656 287.320312 212.722656 C 287.792969 212.722656 288.703125 212.730469 290.0625 212.75 C 289.875 212.292969 289.746094 211.980469 289.667969 211.820312 L 288.015625 208.199219 C 287.804688 207.75 287.613281 207.304688 287.429688 206.867188 L 286.792969 205.296875 C 287.617188 204.976562 288.257812 204.65625 288.714844 204.351562 C 289.175781 204.039062 289.550781 203.675781 289.855469 203.253906 C 290.15625 202.828125 290.375 202.378906 290.515625 201.890625 C 290.65625 201.410156 290.722656 200.890625 290.722656 200.34375 Z M 304.1875 208.125 C 304.1875 207.832031 304.160156 207.566406 304.105469 207.3125 C 304.050781 207.058594 303.960938 206.808594 303.84375 206.558594 C 303.722656 206.308594 303.550781 206.039062 303.328125 205.746094 C 303.105469 205.449219 302.839844 205.148438 302.535156 204.84375 C 302.230469 204.539062 301.945312 204.28125 301.679688 204.066406 L 300.792969 203.363281 C 300.160156 202.871094 299.695312 202.496094 299.394531 202.246094 C 299.097656 201.996094 298.859375 201.765625 298.679688 201.550781 C 298.5 201.34375 298.375 201.15625 298.3125 201 C 298.25 200.84375 298.214844 200.683594 298.214844 200.523438 C 298.214844 200.167969 298.429688 199.871094 298.851562 199.632812 C 299.277344 199.398438 299.8125 199.273438 300.457031 199.273438 C 300.910156 199.273438 301.453125 199.335938 302.078125 199.453125 C 302.703125 199.570312 303.398438 199.785156 304.15625 200.089844 C 304.03125 198.902344 303.953125 198.078125 303.917969 197.597656 C 303.882812 197.125 303.855469 196.605469 303.835938 196.035156 C 302.195312 195.714844 300.679688 195.554688 299.285156 195.554688 C 298.574219 195.554688 297.886719 195.609375 297.21875 195.722656 C 296.554688 195.832031 295.929688 196.039062 295.335938 196.347656 C 294.746094 196.652344 294.28125 197.015625 293.925781 197.4375 C 293.574219 197.855469 293.308594 198.304688 293.128906 198.792969 C 292.949219 199.273438 292.863281 199.765625 292.863281 200.273438 C 292.863281 200.6875 292.917969 201.09375 293.03125 201.46875 C 293.140625 201.84375 293.324219 202.210938 293.566406 202.570312 C 293.808594 202.933594 294.148438 203.328125 294.585938 203.746094 C 294.800781 203.953125 295.183594 204.289062 295.726562 204.746094 L 298.054688 206.777344 C 298.269531 206.964844 298.4375 207.144531 298.546875 207.304688 C 298.664062 207.464844 298.742188 207.609375 298.785156 207.734375 C 298.824219 207.859375 298.847656 208 298.847656 208.136719 C 298.847656 208.546875 298.628906 208.859375 298.207031 209.070312 C 297.78125 209.277344 297.207031 209.382812 296.492188 209.382812 C 295.949219 209.382812 295.308594 209.296875 294.585938 209.136719 C 293.863281 208.976562 293.039062 208.691406 292.113281 208.277344 C 292.253906 209.332031 292.378906 210.734375 292.480469 212.492188 C 294.519531 212.882812 296.207031 213.078125 297.539062 213.078125 C 298.410156 213.078125 299.226562 212.992188 300.007812 212.820312 C 300.785156 212.648438 301.5 212.339844 302.152344 211.910156 C 302.804688 211.480469 303.308594 210.921875 303.660156 210.257812 C 304.015625 209.582031 304.1875 208.882812 304.1875 208.136719 Z M 245.671875 199.890625 C 244.957031 199.480469 244.144531 199.273438 243.25 199.273438 C 242.304688 199.273438 241.441406 199.507812 240.679688 199.972656 C 239.914062 200.4375 239.324219 201.085938 238.90625 201.910156 C 238.496094 202.738281 238.289062 203.628906 238.289062 204.578125 C 238.289062 205.457031 238.476562 206.253906 238.851562 206.976562 C 239.226562 207.699219 239.796875 208.269531 240.558594 208.679688 C 241.324219 209.089844 242.136719 209.289062 243 209.289062 C 243.914062 209.289062 244.75 209.0625 245.511719 208.601562 C 246.277344 208.144531 246.855469 207.503906 247.257812 206.671875 C 247.660156 205.84375 247.855469 204.976562 247.855469 204.066406 C 247.855469 203.15625 247.667969 202.371094 247.300781 201.621094 C 246.929688 200.875 246.382812 200.292969 245.667969 199.882812 Z M 115.976562 285.398438 C 115.175781 285.792969 114.105469 285.988281 112.765625 285.988281 C 111.746094 285.988281 110.554688 285.835938 109.207031 285.539062 C 107.851562 285.238281 106.3125 284.703125 104.582031 283.925781 C 104.84375 285.898438 105.074219 288.53125 105.277344 291.820312 C 109.089844 292.542969 112.246094 292.910156 114.746094 292.910156 C 116.363281 292.910156 117.90625 292.75 119.367188 292.421875 C 120.824219 292.097656 122.167969 291.535156 123.382812 290.722656 C 124.597656 289.90625 125.542969 288.878906 126.203125 287.617188 C 126.871094 286.359375 127.195312 285.03125 127.195312 283.648438 C 127.195312 283.105469 127.140625 282.605469 127.035156 282.132812 C 126.925781 281.660156 126.757812 281.195312 126.535156 280.730469 C 126.3125 280.265625 125.996094 279.757812 125.578125 279.203125 C 125.160156 278.644531 124.667969 278.082031 124.097656 277.511719 C 123.527344 276.941406 122.992188 276.457031 122.5 276.054688 L 120.832031 274.734375 C 119.644531 273.808594 118.769531 273.109375 118.210938 272.636719 C 117.65625 272.164062 117.210938 271.730469 116.871094 271.335938 C 116.53125 270.941406 116.300781 270.601562 116.175781 270.308594 C 116.050781 270.015625 115.988281 269.71875 115.988281 269.40625 C 115.988281 268.746094 116.386719 268.1875 117.183594 267.738281 C 117.976562 267.292969 118.976562 267.0625 120.179688 267.0625 C 121.027344 267.0625 122.042969 267.175781 123.214844 267.398438 C 124.390625 267.617188 125.683594 268.015625 127.105469 268.589844 C 126.878906 266.367188 126.730469 264.8125 126.667969 263.929688 C 126.605469 263.039062 126.550781 262.066406 126.507812 260.996094 C 123.4375 260.394531 120.597656 260.09375 117.992188 260.09375 C 116.664062 260.09375 115.378906 260.199219 114.128906 260.40625 C 112.875 260.617188 111.703125 261.003906 110.613281 261.574219 C 109.515625 262.144531 108.636719 262.824219 107.972656 263.609375 C 107.304688 264.394531 106.8125 265.242188 106.476562 266.144531 C 106.144531 267.050781 105.976562 267.972656 105.976562 268.910156 C 105.976562 269.695312 106.082031 270.441406 106.289062 271.148438 C 106.5 271.851562 106.832031 272.546875 107.289062 273.21875 C 107.75 273.898438 108.382812 274.628906 109.203125 275.421875 C 109.605469 275.8125 110.3125 276.4375 111.335938 277.296875 L 115.699219 281.089844 C 116.101562 281.445312 116.40625 281.773438 116.628906 282.078125 C 116.84375 282.375 116.988281 282.648438 117.066406 282.890625 C 117.144531 283.125 117.183594 283.382812 117.183594 283.640625 C 117.183594 284.414062 116.789062 284.996094 115.988281 285.390625 Z M 146.839844 267.460938 C 147.617188 267.453125 149.117188 267.445312 151.339844 267.445312 C 153.363281 267.445312 155.863281 267.507812 158.84375 267.632812 C 158.84375 267.078125 158.859375 266.535156 158.894531 265.992188 L 159.03125 263.476562 C 159.09375 262.324219 159.128906 261.65625 159.148438 261.46875 L 159.199219 260.707031 C 155.558594 260.734375 151.355469 260.753906 146.582031 260.753906 C 141.414062 260.753906 137.007812 260.742188 133.367188 260.707031 L 133.386719 262.742188 C 133.386719 264.195312 133.296875 267.148438 133.125 271.601562 C 132.941406 276.054688 132.769531 279.625 132.589844 282.308594 C 132.40625 284.996094 132.128906 288.324219 131.742188 292.3125 L 135.027344 292.292969 L 145.210938 292.269531 C 149.699219 292.269531 153.835938 292.285156 157.601562 292.320312 C 157.726562 289.878906 157.878906 287.519531 158.066406 285.230469 C 156.398438 285.34375 155.210938 285.398438 154.503906 285.417969 L 149.714844 285.539062 C 147.25 285.585938 145.621094 285.605469 144.832031 285.605469 L 142.167969 285.605469 L 142.449219 279.980469 C 145.085938 279.867188 147.472656 279.820312 149.597656 279.820312 C 151.027344 279.820312 153.085938 279.832031 155.753906 279.867188 C 155.890625 277.136719 156.039062 274.78125 156.191406 272.808594 C 152.453125 272.921875 150.152344 272.96875 149.292969 272.96875 C 146.867188 272.96875 144.746094 272.949219 142.917969 272.898438 L 143.199219 267.578125 C 144.851562 267.515625 146.066406 267.480469 146.84375 267.472656 Z M 191.035156 274.519531 C 191.597656 273.726562 192.007812 272.871094 192.269531 271.96875 C 192.535156 271.066406 192.667969 270.097656 192.667969 269.0625 C 192.667969 268.140625 192.550781 267.273438 192.304688 266.457031 C 192.0625 265.644531 191.730469 264.945312 191.296875 264.339844 C 190.867188 263.734375 190.324219 263.191406 189.679688 262.707031 C 189.035156 262.21875 188.234375 261.808594 187.28125 261.46875 C 186.332031 261.128906 185.28125 260.90625 184.121094 260.796875 C 182.578125 260.644531 180.820312 260.566406 178.839844 260.566406 C 177.160156 260.566406 175.429688 260.601562 173.65625 260.671875 C 171.886719 260.742188 170.378906 260.773438 169.140625 260.773438 C 167.90625 260.773438 166.398438 260.753906 164.464844 260.707031 C 164.464844 262.589844 164.4375 265.125 164.375 268.3125 C 164.3125 271.503906 164.222656 274.53125 164.097656 277.402344 C 163.972656 280.269531 163.828125 282.792969 163.660156 284.976562 C 163.484375 287.148438 163.257812 289.59375 162.964844 292.3125 C 165.300781 292.285156 166.910156 292.261719 167.808594 292.261719 C 168.578125 292.261719 170.253906 292.277344 172.835938 292.3125 C 172.886719 287.929688 172.984375 283.460938 173.136719 278.910156 C 173.289062 274.359375 173.464844 270.496094 173.664062 267.335938 C 174.4375 267.320312 175.109375 267.300781 175.695312 267.277344 C 176.269531 267.257812 176.832031 267.242188 177.375 267.242188 C 178.964844 267.242188 180.140625 267.367188 180.90625 267.613281 C 181.667969 267.863281 182.222656 268.230469 182.585938 268.738281 C 182.941406 269.238281 183.121094 269.820312 183.121094 270.488281 C 183.121094 271.273438 182.882812 272.023438 182.414062 272.734375 C 181.941406 273.441406 181.246094 273.96875 180.328125 274.308594 C 179.410156 274.648438 178.390625 274.816406 177.265625 274.816406 C 176.457031 274.816406 175.644531 274.742188 174.8125 274.585938 L 177.199219 281.140625 C 177.921875 283.113281 178.472656 284.648438 178.847656 285.746094 C 179.035156 286.238281 179.257812 286.941406 179.523438 287.851562 C 180.167969 290.027344 180.621094 291.519531 180.863281 292.320312 C 183.390625 292.292969 185.210938 292.269531 186.324219 292.269531 C 187.207031 292.269531 188.914062 292.285156 191.457031 292.320312 C 191.105469 291.457031 190.855469 290.875 190.714844 290.582031 L 187.609375 283.800781 C 187.21875 282.953125 186.859375 282.121094 186.519531 281.300781 L 185.316406 278.359375 C 186.859375 277.757812 188.0625 277.164062 188.914062 276.589844 C 189.769531 276.011719 190.480469 275.324219 191.042969 274.523438 Z M 203.785156 289.484375 L 204.640625 292.3125 C 207.507812 292.285156 209.460938 292.261719 210.496094 292.261719 C 211.609375 292.261719 213.460938 292.277344 216.054688 292.3125 C 217.011719 290.199219 217.875 288.367188 218.644531 286.824219 L 226.628906 270.988281 C 228.617188 267.070312 230.402344 263.644531 231.972656 260.710938 C 229.457031 260.742188 227.769531 260.761719 226.921875 260.761719 C 225.558594 260.761719 223.757812 260.746094 221.523438 260.710938 C 221.140625 261.699219 220.855469 262.402344 220.675781 262.816406 C 220.5 263.234375 220.339844 263.601562 220.203125 263.929688 L 212.128906 281.632812 L 211.066406 284.292969 C 210.574219 282.460938 210.15625 280.964844 209.816406 279.820312 L 206.402344 268.863281 C 205.632812 266.4375 205.105469 264.761719 204.828125 263.832031 C 204.625 263.125 204.347656 262.082031 203.992188 260.707031 C 201.84375 260.734375 200.277344 260.753906 199.273438 260.753906 C 197.640625 260.753906 195.773438 260.742188 193.675781 260.707031 L 198.121094 273.207031 L 203.777344 289.484375 Z M 237.738281 292.261719 L 242.484375 292.3125 C 242.484375 289.65625 242.53125 286.449219 242.625 282.6875 C 242.714844 278.929688 242.875 274.894531 243.089844 270.570312 C 243.253906 267.464844 243.484375 264.179688 243.761719 260.707031 C 240.859375 260.734375 239.199219 260.753906 238.78125 260.753906 C 237.871094 260.753906 236.0625 260.742188 233.363281 260.707031 L 233.382812 263.695312 C 233.382812 270.378906 232.9375 279.917969 232.046875 292.3125 C 234.917969 292.285156 236.816406 292.261719 237.738281 292.261719 Z M 262.953125 268.507812 C 264.621094 267.675781 266.496094 267.257812 268.582031 267.257812 C 269.539062 267.257812 270.574219 267.335938 271.695312 267.488281 C 272.8125 267.640625 274.269531 267.933594 276.078125 268.371094 L 275.917969 265.730469 C 275.855469 264.707031 275.808594 263.777344 275.777344 262.929688 L 275.730469 260.984375 C 272.367188 260.398438 269.539062 260.101562 267.253906 260.101562 C 264.765625 260.101562 262.363281 260.421875 260.027344 261.058594 C 257.695312 261.699219 255.554688 262.769531 253.601562 264.257812 C 251.648438 265.742188 250.15625 267.605469 249.113281 269.835938 C 248.070312 272.066406 247.550781 274.582031 247.550781 277.375 C 247.550781 279.765625 247.9375 281.925781 248.710938 283.855469 C 249.480469 285.789062 250.765625 287.460938 252.566406 288.894531 C 254.367188 290.316406 256.339844 291.347656 258.492188 291.972656 C 260.644531 292.597656 262.972656 292.910156 265.476562 292.910156 C 267.976562 292.910156 271.011719 292.660156 274.320312 292.167969 C 274.410156 291.277344 274.589844 290.019531 274.855469 288.394531 C 275.117188 286.769531 275.339844 285.503906 275.527344 284.601562 C 273.582031 285.105469 271.964844 285.453125 270.679688 285.628906 C 269.394531 285.808594 268.199219 285.890625 267.101562 285.890625 C 265.09375 285.890625 263.40625 285.550781 262.042969 284.863281 C 260.675781 284.175781 259.589844 283.203125 258.792969 281.945312 C 257.984375 280.6875 257.589844 279.179688 257.589844 277.421875 C 257.589844 275.492188 258.070312 273.734375 259.027344 272.140625 C 259.984375 270.550781 261.300781 269.34375 262.960938 268.507812 Z M 295.03125 267.453125 C 295.808594 267.445312 297.3125 267.4375 299.535156 267.4375 C 301.554688 267.4375 304.058594 267.5 307.039062 267.625 C 307.039062 267.070312 307.050781 266.527344 307.085938 265.984375 L 307.226562 263.472656 C 307.289062 262.316406 307.324219 261.652344 307.34375 261.464844 L 307.390625 260.699219 C 303.75 260.726562 299.546875 260.746094 294.773438 260.746094 C 289.605469 260.746094 285.199219 260.734375 281.558594 260.699219 L 281.582031 262.734375 C 281.582031 264.1875 281.492188 267.140625 281.316406 271.59375 C 281.136719 276.046875 280.960938 279.617188 280.78125 282.300781 C 280.601562 284.988281 280.324219 288.316406 279.933594 292.304688 L 283.21875 292.285156 L 293.40625 292.261719 C 297.902344 292.261719 302.027344 292.277344 305.792969 292.3125 C 305.917969 289.875 306.070312 287.511719 306.261719 285.226562 C 304.59375 285.335938 303.402344 285.390625 302.695312 285.414062 L 297.910156 285.53125 C 295.441406 285.578125 293.816406 285.601562 293.023438 285.601562 L 290.363281 285.601562 L 290.640625 279.972656 C 293.28125 279.863281 295.664062 279.8125 297.789062 279.8125 C 299.222656 279.8125 301.277344 279.828125 303.945312 279.863281 C 304.085938 277.128906 304.230469 274.777344 304.382812 272.800781 C 300.644531 272.914062 298.347656 272.960938 297.484375 272.960938 C 295.058594 272.960938 292.941406 272.941406 291.121094 272.890625 L 291.398438 267.570312 C 293.050781 267.507812 294.269531 267.472656 295.046875 267.464844 Z M 210.84375 348.519531 C 171.59375 348.046875 132.851562 333.339844 103.683594 306.535156 C 86.28125 290.535156 72.675781 270.328125 65.636719 247.679688 C 58.613281 225.082031 57.960938 200.75 62.90625 177.664062 C 73.195312 129.589844 107.179688 90.382812 152.9375 72.714844 C 178.160156 62.980469 205.953125 59.511719 232.75 63.292969 C 245.917969 65.148438 258.824219 68.789062 270.914062 74.332031 C 273.410156 75.480469 277.398438 76.675781 278.539062 79.417969 C 279.996094 82.929688 276.007812 87.214844 274.292969 89.988281 C 271.914062 93.835938 269.539062 97.683594 267.171875 101.535156 C 266.183594 103.140625 265.191406 104.738281 264.203125 106.34375 C 262.828125 108.578125 260.492188 111.074219 259.964844 113.671875 C 263.308594 114.277344 268.269531 112.0625 271.570312 111.304688 C 275.605469 110.378906 279.636719 109.441406 283.664062 108.488281 C 290.988281 106.757812 298.304688 104.996094 305.613281 103.179688 C 313.652344 101.1875 321.675781 99.144531 329.679688 97.054688 C 333.320312 96.101562 336.957031 95.136719 340.597656 94.164062 C 343.765625 93.316406 347.914062 92.882812 350.671875 91.007812 C 353 89.425781 353.046875 87.230469 352.539062 84.664062 C 351.769531 80.765625 350.558594 76.902344 349.574219 73.046875 C 347.613281 65.390625 345.648438 57.734375 343.6875 50.085938 C 341.730469 42.433594 339.761719 34.773438 337.804688 27.121094 C 336.867188 23.472656 335.933594 19.832031 334.996094 16.1875 C 334.058594 12.539062 333.683594 6.6875 331.515625 3.664062 C 328.578125 5.527344 326.386719 10.230469 324.332031 13.046875 C 321.921875 16.339844 319.570312 19.679688 317.105469 22.9375 C 315.5 25.058594 313.9375 27.03125 311.019531 27.136719 C 307.40625 27.269531 303.410156 24.621094 300.195312 23.285156 C 287.425781 17.984375 274.0625 14.144531 260.464844 11.683594 C 232.507812 6.625 203.476562 7.355469 175.789062 13.707031 C 124.804688 25.398438 79.796875 57.304688 51.742188 101.453125 C 0.0351562 182.820312 24.785156 291.664062 109.054688 340.308594 C 162.679688 371.261719 231.839844 369.71875 286.449219 342.003906 C 301.980469 334.125 316.382812 324.042969 328.882812 311.90625 C 336.085938 304.910156 342.695312 297.257812 348.34375 288.957031 C 353.382812 281.550781 358.621094 273.085938 361.164062 264.457031 C 335.800781 307.507812 289.460938 337.515625 240.574219 346.132812 C 230.726562 347.867188 220.765625 348.660156 210.835938 348.535156 Z M 210.84375 348.519531 " fill-opacity="1" fill-rule="nonzero"/></g></svg>