<svg xmlns="http://www.w3.org/2000/svg" xmlns:xlink="http://www.w3.org/1999/xlink" width="500" zoomAndPan="magnify" viewBox="0 0 375 374.999991" height="500" preserveAspectRatio="xMidYMid meet" version="1.0"><defs><clipPath id="0833eab1f5"><path d="M 9.960938 9.960938 L 364.710938 9.960938 L 364.710938 364.710938 L 9.960938 364.710938 Z M 9.960938 9.960938 " clip-rule="nonzero"/></clipPath></defs><g clip-path="url(#0833eab1f5)"><path fill="#3461ab" d="M 43.894531 270.984375 C 45.488281 273.714844 44.5625 277.222656 41.828125 278.816406 C 40.921875 279.34375 39.929688 279.59375 38.953125 279.59375 C 36.980469 279.59375 35.0625 278.574219 34 276.75 C 18.273438 249.765625 9.964844 218.902344 9.964844 187.5 C 9.964844 140.078125 28.429688 95.492188 61.964844 61.960938 C 95.496094 28.429688 140.078125 9.960938 187.503906 9.960938 C 225.253906 9.960938 262.0625 22.0625 292.359375 44.238281 L 288.65625 31.265625 C 287.789062 28.222656 289.550781 25.054688 292.59375 24.183594 C 295.632812 23.316406 298.804688 25.078125 299.671875 28.121094 L 308.367188 58.601562 C 308.851562 60.292969 308.53125 62.117188 307.496094 63.539062 C 306.460938 64.964844 304.824219 65.832031 303.066406 65.894531 L 271.390625 67.035156 C 271.320312 67.035156 271.25 67.039062 271.179688 67.039062 C 268.113281 67.039062 265.570312 64.609375 265.460938 61.515625 C 265.347656 58.355469 267.816406 55.703125 270.980469 55.585938 L 287.613281 54.992188 C 258.898438 33.289062 223.664062 21.414062 187.503906 21.414062 C 95.921875 21.414062 21.417969 95.921875 21.417969 187.5 C 21.417969 216.878906 29.191406 245.746094 43.894531 270.984375 Z M 341.007812 98.261719 C 339.414062 95.53125 335.910156 94.605469 333.175781 96.195312 C 330.441406 97.789062 329.519531 101.296875 331.109375 104.027344 C 345.816406 129.265625 353.585938 158.128906 353.585938 187.5 C 353.585938 279.078125 279.082031 353.585938 187.503906 353.585938 C 151.335938 353.585938 116.09375 341.710938 87.378906 320.007812 L 104.027344 319.410156 C 107.1875 319.296875 109.65625 316.644531 109.542969 313.484375 C 109.433594 310.390625 106.894531 307.960938 103.824219 307.960938 C 103.753906 307.960938 103.6875 307.960938 103.617188 307.964844 L 71.9375 309.101562 C 70.179688 309.164062 68.546875 310.035156 67.511719 311.457031 C 66.476562 312.882812 66.152344 314.703125 66.636719 316.398438 L 75.332031 346.878906 C 76.050781 349.394531 78.34375 351.035156 80.835938 351.035156 C 81.355469 351.035156 81.886719 350.964844 82.410156 350.8125 C 85.453125 349.945312 87.214844 346.777344 86.347656 343.734375 L 82.648438 330.769531 C 112.941406 352.941406 149.75 365.039062 187.503906 365.039062 C 234.925781 365.039062 279.507812 346.570312 313.042969 313.039062 C 346.574219 279.507812 365.042969 234.921875 365.042969 187.5 C 365.042969 156.105469 356.730469 125.246094 341.007812 98.261719 Z M 299.507812 174.628906 C 321.339844 166.6875 330.367188 177.796875 332.851562 181.949219 C 338.890625 192.03125 335.921875 206.429688 326.625 212.15625 L 229.285156 272.089844 C 222.507812 276.265625 215.097656 278.375 207.421875 278.375 C 203.628906 278.375 199.773438 277.859375 195.898438 276.820312 L 127.589844 258.519531 L 119.671875 263.089844 L 123.757812 270.316406 C 125.546875 273.476562 125.996094 277.148438 125.023438 280.660156 C 124.050781 284.175781 121.773438 287.09375 118.613281 288.882812 L 103.566406 297.398438 C 101.496094 298.570312 99.210938 299.164062 96.890625 299.164062 C 95.667969 299.164062 94.433594 299 93.21875 298.660156 C 89.707031 297.6875 86.785156 295.410156 85 292.253906 L 40.753906 214.078125 C 38.964844 210.917969 38.515625 207.242188 39.492188 203.730469 C 40.464844 200.21875 42.742188 197.300781 45.898438 195.511719 L 60.949219 186.996094 C 64.109375 185.207031 67.78125 184.757812 71.296875 185.730469 C 74.808594 186.703125 77.726562 188.980469 79.515625 192.140625 L 82.796875 197.9375 L 121.855469 175.324219 C 129.105469 171.125 137.371094 167.15625 146.425781 166.59375 C 144.539062 159.695312 143.585938 152.570312 143.585938 145.3125 C 143.585938 100.808594 179.789062 64.601562 224.292969 64.601562 C 268.796875 64.601562 305.003906 100.808594 305.003906 145.3125 C 305.003906 155.453125 303.128906 165.359375 299.507812 174.628906 Z M 155.039062 145.3125 C 155.039062 153.15625 156.34375 160.816406 158.894531 168.132812 C 158.96875 168.15625 159.042969 168.175781 159.117188 168.199219 C 161.421875 168.945312 163.996094 169.847656 166.730469 170.828125 C 163.195312 162.84375 161.3125 154.144531 161.3125 145.3125 C 161.3125 110.582031 189.566406 82.328125 224.296875 82.328125 C 259.023438 82.328125 287.28125 110.582031 287.28125 145.3125 C 287.28125 164.667969 278.5 182.011719 264.714844 193.574219 L 282.089844 183.453125 C 289.585938 172.125 293.550781 158.96875 293.550781 145.3125 C 293.550781 107.125 262.484375 76.054688 224.296875 76.054688 C 186.109375 76.054688 155.039062 107.125 155.039062 145.3125 Z M 213.515625 184.957031 C 213.765625 185.003906 214.019531 185.066406 214.265625 185.148438 C 220.359375 187.121094 225.023438 191.445312 227.488281 196.734375 C 254.421875 195.078125 275.828125 172.652344 275.828125 145.3125 C 275.828125 116.898438 252.710938 93.78125 224.296875 93.78125 C 195.882812 93.78125 172.765625 116.898438 172.765625 145.3125 C 172.765625 156.703125 176.578125 167.816406 183.511719 176.792969 C 192.859375 179.976562 203.148438 183.089844 213.515625 184.957031 Z M 227.308594 214.585938 C 229.296875 213.949219 231.234375 213.074219 233.148438 211.960938 L 246.171875 204.375 C 240.832031 206.359375 235.15625 207.640625 229.25 208.101562 C 229.136719 208.949219 228.972656 209.796875 228.746094 210.640625 C 228.371094 212.042969 227.890625 213.359375 227.308594 214.585938 Z M 113.792969 275.957031 L 69.546875 197.78125 C 69.167969 197.109375 68.5625 196.859375 68.238281 196.769531 C 68.089844 196.726562 67.882812 196.6875 67.636719 196.6875 C 67.328125 196.6875 66.964844 196.75 66.589844 196.960938 L 51.542969 205.480469 C 50.519531 206.058594 50.144531 207.414062 50.722656 208.4375 L 94.964844 286.609375 C 95.542969 287.636719 96.898438 288.007812 97.921875 287.429688 L 112.972656 278.914062 C 113.640625 278.535156 113.894531 277.929688 113.984375 277.601562 C 114.074219 277.273438 114.171875 276.628906 113.792969 275.957031 Z M 292.546875 190.617188 L 238.914062 221.859375 C 230.480469 226.769531 221.421875 228.363281 211.214844 226.730469 C 211.214844 226.730469 204.351562 225.613281 204.316406 225.605469 C 195.949219 223.894531 188.199219 221.679688 179.992188 219.335938 C 176.265625 218.273438 172.414062 217.171875 168.496094 216.121094 C 165.441406 215.304688 163.628906 212.164062 164.445312 209.109375 C 165.265625 206.054688 168.40625 204.242188 171.460938 205.058594 C 175.472656 206.132812 179.367188 207.246094 183.136719 208.324219 C 191.042969 210.578125 198.511719 212.710938 206.355469 214.328125 C 212.5 215.027344 216.3125 212.796875 217.683594 207.679688 C 218.972656 202.863281 216.136719 197.964844 211.058594 196.15625 C 194.925781 193.195312 179.410156 187.589844 166.925781 183.074219 C 162.582031 181.503906 158.828125 180.148438 155.582031 179.09375 C 145.792969 175.917969 136.347656 180.171875 127.59375 185.238281 L 88.4375 207.90625 L 114.027344 253.121094 L 123.917969 247.414062 C 125.234375 246.652344 126.796875 246.449219 128.261719 246.839844 L 198.863281 265.757812 C 207.585938 268.097656 215.796875 266.945312 223.28125 262.339844 L 320.617188 202.402344 C 324.648438 199.921875 325.859375 192.570312 323.023438 187.835938 C 318.867188 180.886719 307.472656 181.929688 292.546875 190.617188 Z M 218.570312 181.542969 C 218.570312 184.707031 221.132812 187.269531 224.296875 187.269531 C 227.460938 187.269531 230.023438 184.707031 230.023438 181.542969 L 230.023438 178.695312 C 235.929688 177.664062 241.085938 175.027344 244.34375 171.261719 C 247.507812 167.605469 248.855469 163.027344 248.25 158.023438 C 247.03125 148.003906 239.304688 141.753906 225.277344 139.453125 C 213.847656 137.578125 213.636719 133.210938 213.558594 131.566406 C 213.257812 125.382812 219.890625 123.5625 221.222656 123.261719 C 226.570312 122.050781 233.171875 123.703125 235.871094 130.136719 C 237.097656 133.050781 240.457031 134.421875 243.371094 133.199219 C 246.285156 131.972656 247.660156 128.617188 246.433594 125.699219 C 243.105469 117.769531 236.71875 113.535156 230.023438 112.066406 L 230.023438 109.078125 C 230.023438 105.914062 227.460938 103.351562 224.296875 103.351562 C 221.132812 103.351562 218.570312 105.914062 218.570312 109.078125 L 218.570312 112.117188 C 208.257812 114.503906 201.652344 122.53125 202.117188 132.121094 C 202.457031 139.082031 206.425781 147.964844 223.421875 150.753906 C 234.640625 152.597656 236.507812 156.34375 236.878906 159.402344 C 237.09375 161.183594 236.714844 162.570312 235.679688 163.769531 C 233.730469 166.023438 229.402344 167.609375 224.90625 167.71875 C 219.726562 167.855469 213.078125 165.71875 211.484375 159.328125 C 210.71875 156.257812 207.613281 154.394531 204.542969 155.15625 C 201.472656 155.921875 199.605469 159.027344 200.371094 162.097656 C 202.5 170.628906 209.476562 176.757812 218.570312 178.601562 Z M 64.386719 206.679688 C 61.449219 207.109375 59.417969 209.835938 59.847656 212.773438 C 60.277344 215.710938 63.003906 217.742188 65.941406 217.3125 C 68.878906 216.882812 70.910156 214.15625 70.480469 211.21875 C 70.050781 208.28125 67.324219 206.25 64.386719 206.679688 Z M 64.386719 206.679688 " fill-opacity="1" fill-rule="evenodd"/></g></svg>